<svg xmlns="http://www.w3.org/2000/svg" xmlns:xlink="http://www.w3.org/1999/xlink" version="1.1" id="Layer_1" x="0px" y="0px" width="577.66px" height="292.552px" viewBox="0 0 577.66 292.552" enable-background="new 0 0 577.66 292.552" xml:space="preserve">
<g>
	<path d="M80.756 24.694c10.467 0 19.8 0.9 27.9 2.602c8.155 1.7 15.3 4.1 21.4 7.2 c6.131 3.1 11.3 6.8 15.6 11.029c4.238 4.3 7.7 8.9 10.3 13.967c2.633 5 4.5 10.4 5.7 16 c1.187 5.7 1.8 11.4 1.8 17.34c0 8.091-0.901 16.295-2.698 24.612c-1.798 8.318-4.399 16.361-7.802 24.1 c-3.405 7.771-7.595 15.06-12.571 21.866c-4.978 6.809-10.678 12.749-17.1 17.822c-6.421 5.073-13.485 9.071-21.192 12 c-7.706 2.921-16.023 4.382-24.95 4.382c-3.02 0-6.101-0.226-9.248-0.674c-3.147-0.45-6.197-1.06-9.151-1.831 c-2.955-0.77-5.749-1.636-8.38-2.601c-2.634-0.963-4.946-1.959-6.937-2.986c-0.835-0.255-1.493-0.561-1.974-0.915 c-0.483-0.352-0.853-0.771-1.108-1.251c-0.258-0.483-0.419-1.075-0.482-1.782c-0.064-0.707-0.097-1.605-0.097-2.699 c0-10.658 0.273-21.578 0.82-32.751c0.545-11.175 1.653-22.092 3.323-32.753c1.669-10.659 4.077-20.823 7.225-30.489 c3.146-9.665 7.32-18.317 12.522-25.96c4.559-3.146 8.701-4.721 12.427-4.721c4.687 0 8.6 2.6 11.8 7.9 c-2.955 3.982-5.428 8.414-7.418 13.294c-1.991 4.881-3.66 10.003-5.009 15.364c-1.349 5.363-2.473 10.838-3.372 16.4 c-0.901 5.587-1.734 11.046-2.505 16.376c-0.9 5.909-1.654 10.967-2.263 15.173c-0.612 4.206-1.093 7.883-1.445 11 c-0.355 3.147-0.612 5.909-0.771 8.284c-0.162 2.377-0.241 4.688-0.241 6.937c0 2.4 0.1 4.4 0.2 6 c0.159 1.6 0.5 2.9 1.2 3.854c0.61 1 1.5 1.7 2.8 2.072c1.253 0.4 2.9 0.6 5.1 0.6 c6.42 0 12.522-1.267 18.302-3.805c5.78-2.537 11.11-5.939 15.992-10.211c4.88-4.27 9.263-9.231 13.149-14.883 c3.885-5.649 7.192-11.623 9.923-17.917c2.728-6.292 4.831-12.699 6.309-19.219c1.478-6.516 2.216-12.795 2.216-18.832 c0-7.449-1.221-14.112-3.661-19.989c-2.441-5.876-5.86-10.852-10.259-14.931c-4.4-4.078-9.681-7.192-15.846-9.344 c-6.166-2.15-12.942-3.227-20.326-3.227c-5.395 0-10.741 0.322-16.039 0.963c-5.299 0.643-10.211 1.637-14.74 3 c-4.528 1.349-8.511 3.067-11.944 5.153c-3.437 2.088-6.021 4.576-7.755 7.466c-4.688 7.257-8.542 12.86-11.56 16.8 c-3.018 3.95-5.554 5.923-7.609 5.923c-2.826 0-4.24-3.242-4.24-9.728c0-6.294 0.819-11.945 2.458-16.954 c1.636-5.01 3.917-9.455 6.839-13.342c2.921-3.885 6.389-7.192 10.404-9.923c4.013-2.728 8.411-4.975 13.196-6.742 c4.784-1.766 9.875-3.066 15.27-3.901C69.581 25.1 75.1 24.7 80.8 24.694z"/>
	<path d="M154.229 171.792c0-2.824 0.159-6.117 0.481-9.874c0.321-3.757 0.754-7.721 1.301-11.897 c0.545-4.173 1.188-8.429 1.926-12.764s1.525-8.461 2.36-12.378c0.834-3.917 1.669-7.513 2.505-10.79 c0.833-3.274 1.669-5.973 2.504-8.092c0.514-1.411 1.027-2.535 1.542-3.371c0.514-0.833 1.107-1.493 1.782-1.975 c0.674-0.481 1.509-0.802 2.505-0.962c0.995-0.161 2.23-0.242 3.708-0.242c1.669 0 3 0.1 3.9 0.2 c0.931 0.2 1.6 0.5 2.1 1.155c0.449 0.6 0.7 1.5 0.8 2.649c0.097 1.2 0.1 2.7 0.1 4.7 c0 2.4 0 5.3 0 8.623s0.062 6.7 0.2 9.969h1.06c1.283-2.568 2.728-5.441 4.335-8.621c1.604-3.179 3.468-6.148 5.587-8.91 c2.119-2.761 4.528-5.09 7.225-6.984c2.697-1.894 5.811-2.842 9.344-2.842c1.219 0 2.4 0.2 3.6 0.6 c1.156 0.4 2.2 1 3 1.782c0.868 0.8 1.6 1.7 2.1 2.843c0.514 1.1 0.8 2.4 0.8 3.8 c0 1.093-0.162 2.617-0.481 4.576c-0.322 1.96-0.674 4.014-1.061 6.164c-0.384 2.153-0.739 4.24-1.059 6.3 c-0.322 2.022-0.482 3.708-0.482 5.056c0 2.3 0.2 4.2 0.7 5.78s1.044 2.8 1.8 3.7 c0.738 0.9 1.6 1.6 2.5 1.974c0.93 0.4 1.9 0.6 2.9 0.579c2.89 0 5.876-0.642 8.959-1.928 c3.082-1.283 5.908-2.728 8.477-4.335c3.018-1.86 5.973-3.981 8.863-6.357l-1.445 22.542c-1.671 1.093-3.564 2.312-5.683 3.7 c-2.12 1.349-4.384 2.617-6.792 3.805c-2.409 1.189-4.914 2.184-7.514 2.986c-2.601 0.804-5.25 1.205-7.947 1.2 c-4.817 0-8.704-0.979-11.656-2.939c-2.955-1.958-5.299-4.528-7.033-7.706c-1.733-3.18-3.019-6.744-3.853-10.693 c-0.836-3.95-1.51-7.948-2.023-11.993h-1.541l-17.244 48.069c-0.899 2.505-1.75 4.575-2.552 6.2 c-0.805 1.638-1.624 2.972-2.457 3.998c-0.835 1.027-1.734 1.751-2.698 2.167c-0.963 0.419-2.023 0.626-3.178 0.6 c-2.635 0-4.754-0.561-6.357-1.685c-1.607-1.123-2.842-2.633-3.709-4.528c-0.866-1.894-1.445-4.045-1.734-6.455 C154.374 176.8 154.2 174.4 154.2 171.792z"/>
	<path d="M335.618 168.324c-1.477 2.055-3.453 4.463-5.924 7.224c-2.474 2.763-5.251 5.395-8.333 7.9 c-3.083 2.504-6.392 4.623-9.923 6.358c-3.532 1.734-7.065 2.6-10.597 2.6c-4.238 0-7.771-1.363-10.596-4.093 c-2.827-2.729-5.265-6.696-7.321-11.897c-1.542 1.798-3.436 3.628-5.684 5.49c-2.248 1.864-4.704 3.55-7.369 5.1 c-2.665 1.511-5.443 2.746-8.332 3.71c-2.891 0.962-5.781 1.445-8.67 1.445c-3.083 0-6.086-0.627-9.008-1.878 c-2.922-1.252-5.508-3.05-7.754-5.396c-2.249-2.343-4.046-5.201-5.394-8.573c-1.35-3.371-2.024-7.176-2.024-11.414 c0-4.818 0.674-9.761 2.024-14.836c1.348-5.072 3.209-10.033 5.586-14.884c2.375-4.847 5.185-9.423 8.43-13.726 c3.242-4.302 6.792-8.058 10.644-11.271c3.854-3.211 7.914-5.764 12.187-7.659c4.269-1.894 8.621-2.842 13.052-2.842 c1.478 0 2.6 0.3 3.5 0.867c0.834 0.6 1.5 1.2 2.1 1.975c0.545 0.7 1.1 1.5 1.6 2.2 c0.514 0.7 1.2 1.2 1.9 1.542c0.77 0.3 1.6 0.5 2.4 0.626c0.802 0.1 1.6 0.1 2.5 0.1 c0.706 0 1.428-0.015 2.167-0.047c0.738-0.033 1.461-0.049 2.168-0.049c0.963 0 1.9 0.1 2.7 0.3 c0.835 0.2 1.6 0.6 2.2 1.252c0.642 0.6 1.1 1.5 1.5 2.697c0.353 1.2 0.5 2.7 0.5 4.7 c0 3.082-0.322 6.501-0.962 10.259c-0.643 3.757-1.349 7.61-2.119 11.56c-0.771 3.949-1.479 7.899-2.119 11.8 c-0.643 3.95-0.964 7.692-0.964 11.223c0 3 0.3 5.4 0.8 7.081c0.544 1.7 1.7 2.6 3.5 2.6 c1.349 0 2.761-0.338 4.239-1.012c1.476-0.674 2.97-1.557 4.479-2.65c1.509-1.091 3.018-2.327 4.528-3.708 c1.507-1.381 2.938-2.809 4.287-4.287c3.146-3.468 6.324-7.384 9.536-11.751L335.618 168.324z M253.351 160.7 c0 1.6 0.1 3.2 0.3 4.672c0.224 1.5 0.6 2.9 1.2 4.046c0.578 1.2 1.3 2.2 2.3 2.9 c0.961 0.7 2.2 1.1 3.7 1.108c2.374 0 4.526-1.026 6.454-3.083c1.926-2.054 3.596-4.529 5.009-7.418 c1.411-2.89 2.553-5.876 3.42-8.958c0.866-3.083 1.428-5.651 1.686-7.708l5.876-28.321c-2.634 0-5.202 0.66-7.708 2 c-2.504 1.315-4.864 3.098-7.08 5.346c-2.215 2.249-4.256 4.816-6.117 7.706c-1.864 2.89-3.468 5.924-4.817 9.1 c-1.349 3.178-2.393 6.374-3.131 9.584C253.72 154.9 253.4 157.9 253.4 160.713z"/>
	<path d="M360.742 181.81c-3.47 3.083-7.081 5.572-10.838 7.465c-3.756 1.895-7.401 2.842-10.933 2.8 c-3.083 0-6.085-0.627-9.007-1.878c-2.922-1.252-5.507-3.05-7.755-5.396c-2.249-2.343-4.046-5.201-5.395-8.573 c-1.349-3.371-2.023-7.176-2.023-11.414c0-4.818 0.674-9.761 2.023-14.836c1.349-5.072 3.21-10.033 5.588-14.884 c2.374-4.847 5.184-9.423 8.429-13.726c3.242-4.302 6.792-8.058 10.644-11.271c3.854-3.211 7.914-5.764 12.187-7.659 c4.269-1.894 8.621-2.842 13.052-2.842c1.478 0 2.6 0.3 3.5 0.867c0.834 0.6 1.5 1.2 2.1 2 c0.545 0.7 1.1 1.5 1.6 2.167c0.513 0.7 1.2 1.2 1.9 1.542c0.77 0.3 1.6 0.5 2.4 0.6 c0.801 0.1 1.6 0.1 2.5 0.144c0.706 0 1.429-0.015 2.167-0.047s1.461-0.049 2.168-0.049c0.963 0 1.9 0.1 2.7 0.3 c0.835 0.2 1.6 0.6 2.2 1.252c0.641 0.6 1.1 1.5 1.5 2.697c0.352 1.2 0.5 2.7 0.5 4.7 c0 1.67-0.129 3.917-0.386 6.742c-0.256 2.827-0.611 5.973-1.06 9.44c-0.449 3.468-0.947 7.146-1.492 11 c-0.546 3.886-1.108 7.693-1.686 11.416c-1.349 8.863-2.89 18.335-4.625 28.418c1.928-1.092 4.013-2.44 6.262-4.047 c2.248-1.604 4.753-3.758 7.515-6.455c2.76-2.696 5.844-6.083 9.247-10.163c3.403-4.078 7.225-9.167 11.463-15.268l4.625 21.4 c-1.158 1.991-2.65 4.03-4.48 6.117c-1.83 2.088-3.854 4.174-6.069 6.261c-2.216 2.088-4.528 4.111-6.936 6.1 c-2.409 1.959-4.769 3.805-7.081 5.538c-5.46 4.109-11.335 8.092-17.629 11.946c-1.221 6.872-2.666 13.566-4.334 20.1 c-1.672 6.519-3.646 12.62-5.925 18.304c-2.28 5.683-4.881 10.9-7.802 15.654c-2.923 4.751-6.23 8.83-9.922 12.2 c-3.693 3.402-7.818 6.051-12.378 7.946c-4.561 1.894-9.602 2.843-15.124 2.843c-2.185 0-4.544-0.226-7.081-0.674 c-2.538-0.45-4.881-1.349-7.033-2.698c-2.151-1.349-3.933-3.274-5.346-5.78c-1.413-2.504-2.119-5.844-2.119-10.018 c0-2.89 0.737-6.15 2.214-9.776c1.478-3.63 3.501-7.453 6.069-11.465c2.567-4.015 5.62-8.188 9.151-12.522 c3.531-4.335 7.369-8.655 11.511-12.957c4.142-4.302 8.477-8.541 13.005-12.715c4.527-4.176 9.103-8.156 13.727-11.945 L360.742 181.81z M325.195 262.824c2.697 0 5.25-0.787 7.659-2.36c2.407-1.574 4.623-3.646 6.646-6.213 c2.023-2.569 3.868-5.491 5.538-8.766c1.669-3.276 3.147-6.632 4.432-10.067c1.284-3.436 2.376-6.791 3.276-10.066 c0.899-3.276 1.604-6.198 2.119-8.767c-2.505 1.669-5.057 3.661-7.658 5.972c-2.601 2.312-5.138 4.802-7.61 7.5 c-2.473 2.663-4.816 5.409-7.032 8.236c-2.216 2.825-4.158 5.538-5.828 8.139c-1.67 2.601-2.986 5.024-3.95 7.3 c-0.962 2.247-1.445 4.109-1.445 5.586C321.341 261.6 322.6 262.8 325.2 262.824z M339.452 160.7 c0 1.6 0.1 3.2 0.3 4.672c0.224 1.5 0.6 2.9 1.2 4.046c0.579 1.2 1.3 2.2 2.3 2.9 c0.962 0.7 2.2 1.1 3.7 1.108c2.374 0 4.526-1.026 6.454-3.083c1.926-2.054 3.595-4.529 5.009-7.418 c1.411-2.89 2.553-5.876 3.42-8.958c0.865-3.083 1.427-5.651 1.685-7.708l5.876-28.321c-2.634 0-5.202 0.66-7.707 2 c-2.504 1.315-4.864 3.098-7.08 5.346c-2.216 2.249-4.256 4.816-6.117 7.706c-1.864 2.89-3.469 5.924-4.817 9.1 c-1.349 3.178-2.392 6.374-3.13 9.584C339.82 154.9 339.5 157.9 339.5 160.713z"/>
	<path d="M428.124 191.924c-3.467 0-6.695-1.525-9.682-4.576c-2.986-3.048-5.586-7.143-7.802-12.283 c-2.216-5.137-3.951-11.092-5.202-17.869c-1.252-6.774-1.879-13.887-1.879-21.337c0-5.714 0.417-11.928 1.252-18.64 c0.835-6.709 2.056-13.63 3.661-20.759c1.606-7.128 3.517-14.29 5.733-21.483c2.215-7.19 4.719-14.095 7.513-20.71 c2.795-6.613 5.829-12.795 9.104-18.543c3.276-5.747 6.711-10.756 10.308-15.029c3.595-4.27 7.353-7.625 11.271-10.066 c3.916-2.44 7.898-3.661 11.945-3.661c2.76 0 5 0.6 6.8 1.878c1.797 1.3 3.2 2.9 4.2 5 c1.026 2.1 1.8 4.4 2.2 6.984c0.416 2.6 0.6 5.2 0.6 7.948c0 6.037-0.69 12.185-2.07 18.4 c-1.382 6.261-3.243 12.556-5.586 18.88c-2.346 6.326-5.059 12.667-8.141 19.025c-3.082 6.359-6.294 12.667-9.632 18.9 c-3.341 6.261-6.695 12.425-10.068 18.495c-3.371 6.07-6.536 11.994-9.488 17.773c-0.322 0.643-0.659 1.478-1.011 2.5 c-0.354 1.029-0.69 2.137-1.012 3.323c-0.322 1.189-0.643 2.456-0.963 3.805c-0.322 1.349-0.578 2.666-0.771 3.95v1.349 c0 1.7 0.2 3.3 0.5 4.865c0.352 1.6 0.8 3 1.3 4.238c0.512 1.3 1.1 2.2 1.6 3 c0.58 0.7 1.1 1.1 1.6 1.108c1.219 0 2.617-0.257 4.19-0.771c1.573-0.514 3.243-1.205 5.009-2.072 c1.766-0.867 3.579-1.862 5.443-2.986c1.861-1.123 3.661-2.263 5.395-3.419c4.047-2.698 8.285-5.812 12.717-9.346l7.898 20.2 c-5.717 4.11-11.368 7.771-16.954 10.982c-2.442 1.348-4.961 2.682-7.562 3.998c-2.601 1.318-5.218 2.49-7.85 3.5 c-2.634 1.028-5.202 1.846-7.708 2.457C432.652 191.6 430.3 191.9 428.1 191.924z M428.22 114.9 c2.891-5.137 5.956-10.917 9.201-17.34c3.242-6.42 6.309-13.036 9.198-19.843c2.89-6.807 5.395-13.598 7.515-20.374 c2.119-6.775 3.467-13.085 4.044-18.931c0-1.861-0.047-3.451-0.144-4.769c-0.097-1.314-0.402-1.974-0.915-1.974 c-1.864 0-3.87 1.205-6.02 3.612c-2.154 2.409-4.304 5.669-6.455 9.778c-2.152 4.111-4.207 8.896-6.166 14.4 c-1.96 5.459-3.708 11.271-5.25 17.437c-1.541 6.164-2.762 12.507-3.661 19.025C428.668 102.4 428.2 108.7 428.2 114.86z"/>
	<path d="M509.085 117.942c0.513-2.183 1.428-4.125 2.745-5.828c1.316-1.701 2.825-3.131 4.527-4.286 c1.701-1.157 3.483-2.023 5.347-2.602c1.862-0.578 3.627-0.866 5.297-0.866c1.991 0 3.7 0.4 5 1.3 c1.35 0.9 2 2.2 2 4.094c0 0.578-0.096 1.252-0.289 2.023c-0.385 1.671-0.867 3.95-1.444 6.8 c-0.578 2.89-1.205 6.165-1.879 9.826c-0.675 3.661-1.364 7.531-2.07 11.608c-0.708 4.078-1.383 8.14-2.024 12.2 c-1.604 9.506-3.243 19.716-4.912 30.635c1.928-1.092 4.014-2.44 6.261-4.047c2.248-1.604 4.753-3.758 7.515-6.455 c2.762-2.696 5.844-6.083 9.248-10.163c3.403-4.078 7.224-9.167 11.463-15.268l4.624 21.385c-1.156 1.991-2.648 4.03-4.479 6.1 c-1.831 2.088-3.854 4.174-6.069 6.261c-2.217 2.088-4.528 4.111-6.936 6.069c-2.409 1.959-4.769 3.805-7.081 5.5 c-5.459 4.109-11.336 8.092-17.63 11.946c-1.22 6.872-2.665 13.566-4.332 20.084c-1.673 6.519-3.646 12.62-5.926 18.3 c-2.279 5.683-4.882 10.9-7.803 15.654c-2.923 4.751-6.23 8.83-9.922 12.234c-3.693 3.402-7.819 6.051-12.378 7.9 c-4.562 1.894-9.604 2.843-15.124 2.843c-2.185 0-4.544-0.226-7.082-0.674c-2.538-0.45-4.881-1.349-7.031-2.698 c-2.152-1.349-3.934-3.274-5.347-5.78c-1.412-2.504-2.119-5.844-2.119-10.018c0-2.89 0.739-6.15 2.214-9.776 c1.479-3.63 3.502-7.453 6.069-11.465c2.567-4.015 5.62-8.188 9.151-12.522c3.532-4.335 7.371-8.655 11.512-12.957 c4.142-4.302 8.477-8.541 13.005-12.715c4.526-4.176 9.103-8.156 13.727-11.945l2.602-8.959c-3.469 3.083-7.082 5.572-10.838 7.5 c-3.757 1.895-7.401 2.842-10.934 2.842c-3.083 0-6.086-0.627-9.007-1.878c-2.922-1.252-5.508-3.05-7.754-5.396 c-2.248-2.343-4.045-5.201-5.394-8.573c-1.35-3.371-2.024-7.176-2.024-11.414c0-5.588 0.273-10.726 0.82-15.414 c0.544-4.687 1.331-9.151 2.359-13.39c1.026-4.239 2.312-8.333 3.854-12.283c1.542-3.949 3.306-7.946 5.298-11.993 c1.478-2.89 3.597-5.088 6.357-6.598c2.762-1.507 5.458-2.264 8.093-2.264c2.247 0 4.2 0.6 5.8 1.7 c1.605 1.1 2.4 2.9 2.4 5.25c0 0.707-0.081 1.478-0.241 2.312c-0.162 0.834-0.434 1.733-0.82 2.7 c-1.155 2.955-2.295 6.439-3.418 10.452c-1.125 4.014-2.12 8.125-2.987 12.33c-0.867 4.208-1.557 8.333-2.071 12.4 c-0.515 4.046-0.771 7.61-0.771 10.692c0 1.6 0.1 3.2 0.3 4.672c0.225 1.5 0.6 2.9 1.2 4 c0.578 1.2 1.3 2.2 2.3 2.89c0.962 0.7 2.2 1.1 3.7 1.108c2.375 0 4.526-1.026 6.454-3.083 c1.926-2.054 3.596-4.529 5.009-7.418c1.411-2.89 2.552-5.876 3.42-8.958c0.866-3.083 1.427-5.651 1.687-7.708L509.085 117.942z M464.002 262.824c2.697 0 5.25-0.787 7.659-2.36c2.407-1.574 4.624-3.646 6.647-6.213c2.023-2.569 3.868-5.491 5.539-8.766 c1.668-3.276 3.147-6.632 4.432-10.067c1.285-3.436 2.376-6.791 3.275-10.066c0.898-3.276 1.604-6.198 2.12-8.767 c-2.505 1.669-5.059 3.661-7.659 5.972c-2.601 2.312-5.139 4.802-7.611 7.467c-2.472 2.663-4.816 5.409-7.031 8.2 c-2.216 2.825-4.158 5.538-5.828 8.139c-1.67 2.601-2.986 5.024-3.95 7.273c-0.963 2.247-1.445 4.109-1.445 5.6 C460.148 261.6 461.4 262.8 464 262.824z"/>
</g>
</svg>
